<svg width="20" height="18" viewBox="0 0 20 18" fill="none" xmlns="http://www.w3.org/2000/svg">
<path fill-rule="evenodd" clip-rule="evenodd" d="M9.15259 2.00146C9.7948 2.00146 10.4442 2.02958 11.0813 2.077C13.8317 2.2817 14.3462 2.39545 15.0524 3.10165C15.2857 3.33494 15.5918 3.5 15.9218 3.5H15.9988C16.7872 3.5 17.3373 2.71587 16.8418 2.10272C16.7291 1.96333 16.6046 1.82541 16.4666 1.68743C15.1537 0.37456 13.8458 0.277213 11.2298 0.082518C10.5516 0.0320482 9.85211 0.00146484 9.15259 0.00146484C8.45306 0.00146484 7.75354 0.0320482 7.07541 0.082518C4.45942 0.277213 3.15143 0.37456 1.83856 1.68743C0.525682 3.00031 0.428335 4.3083 0.233641 6.92429C0.18317 7.60242 0.152588 8.30194 0.152588 9.00146C0.152588 9.70099 0.18317 10.4005 0.233641 11.0786C0.428335 13.6946 0.525682 15.0026 1.83856 16.3155C3.15143 17.6284 4.45942 17.7257 7.07541 17.9204C7.75354 17.9709 8.45306 18.0015 9.15259 18.0015C9.85211 18.0015 10.5516 17.9709 11.2298 17.9204C13.8458 17.7257 15.1537 17.6284 16.4666 16.3155C16.6059 16.1762 16.7315 16.037 16.845 15.8963C17.3393 15.2832 16.7893 14.5 16.0017 14.5H15.9274C15.5953 14.5 15.2872 14.6665 15.0524 14.9013C14.3462 15.6075 13.8317 15.7212 11.0813 15.9259C10.4442 15.9733 9.7948 16.0015 9.15259 16.0015C8.51037 16.0015 7.861 15.9733 7.22385 15.9259C4.47349 15.7212 3.95897 15.6075 3.25277 14.9013C2.54657 14.1951 2.43282 13.6806 2.22812 10.9302C2.18071 10.293 2.15259 9.64368 2.15259 9.00146C2.15259 8.35925 2.18071 7.70988 2.22812 7.07273C2.43282 4.32237 2.54657 3.80785 3.25277 3.10165C3.95897 2.39545 4.47349 2.2817 7.22385 2.077C7.861 2.02958 8.51037 2.00146 9.15259 2.00146ZM15.5146 12.937C14.8481 13.3369 14.0001 12.8568 14.0001 12.0795C14.0001 11.7282 14.1844 11.4027 14.4856 11.222L14.759 11.058C15.4593 10.6378 16.0298 10.294 16.4958 9.99927H8.0001C7.44781 9.99927 7.0001 9.55155 7.0001 8.99927C7.0001 8.44698 7.44781 7.99927 8.0001 7.99927L16.4935 7.99927C16.028 7.70484 15.4581 7.36149 14.759 6.94202L14.4856 6.77798C14.1844 6.59726 14.0001 6.27175 14.0001 5.92049C14.0001 5.1432 14.8481 4.66308 15.5146 5.063L15.788 5.22703C18.5961 6.91193 20.0001 7.75438 20.0001 9C20.0001 10.2456 18.5961 11.0881 15.788 12.773L15.5146 12.937Z" fill="#8D969F"/>
</svg>
