<svg width="12" height="12" viewBox="0 0 12 12" fill="none" xmlns="http://www.w3.org/2000/svg">
<path d="M1.12349 1.1241C1.86268 0.38491 2.5998 0.224322 3.86344 0.113733C4.27608 0.0776204 4.63624 0.389813 4.66706 0.802878C4.69789 1.21594 4.38761 1.5738 3.97513 1.61165C2.79088 1.72032 2.53866 1.83025 2.18415 2.18476C1.76495 2.60396 1.68774 2.88014 1.55019 4.72348C1.51865 5.14609 1.5 5.57617 1.5 6.00085C1.5 6.42554 1.51865 6.85562 1.55019 7.27822C1.68774 9.12157 1.76495 9.39775 2.18415 9.81695C2.60335 10.2362 2.87953 10.3134 4.72287 10.4509C5.14548 10.4824 5.57556 10.5011 6.00024 10.5011C6.42493 10.5011 6.85501 10.4824 7.27761 10.4509C9.12096 10.3134 9.39714 10.2362 9.81634 9.81695C10.1708 9.46244 10.2808 9.21022 10.3895 8.02597C10.4273 7.61349 10.7852 7.30321 11.1982 7.33403C11.6113 7.36486 11.9235 7.72502 11.8874 8.13765C11.7768 9.4013 11.6162 10.1384 10.877 10.8776C10.0029 11.7517 9.13167 11.8167 7.38923 11.9468C6.93583 11.9806 6.46804 12.0011 6.00024 12.0011C5.53245 12.0011 5.06466 11.9806 4.61126 11.9468C2.86882 11.8167 1.9976 11.7517 1.12349 10.8776C0.249374 10.0035 0.184365 9.13228 0.0543466 7.38984C0.0205146 6.93644 0 6.46865 0 6.00085C0 5.53306 0.0205146 5.06527 0.0543467 4.61187C0.184365 2.86943 0.249374 1.99822 1.12349 1.1241Z" fill="#1D2023"/>
<path d="M12.0003 5.24275C12.0181 5.65725 11.6802 5.99374 11.2649 5.99374C10.8496 5.99374 10.5142 5.65722 10.4948 5.24279C10.4547 4.38229 10.3529 3.54199 10.2419 2.83227L5.92792 7.14379C5.63425 7.43715 5.15811 7.43715 4.86444 7.14379C4.57077 6.85042 4.57077 6.37478 4.86445 6.08142L9.1876 1.7607C8.47256 1.64843 7.62296 1.54509 6.75271 1.50458C6.33785 1.48526 6.00098 1.15017 6.00098 0.73529C6.00098 0.320409 6.33782 -0.0171338 6.75275 0.000673722C7.8732 0.0487597 8.94872 0.193766 9.77725 0.334763C10.5101 0.459472 10.8765 0.521827 11.1775 0.822584C11.4786 1.12334 11.541 1.48936 11.6659 2.22141C11.807 3.04907 11.9522 4.12347 12.0003 5.24275Z" fill="#1D2023"/>
</svg>
