<svg width="28" height="38" viewBox="0 0 28 38" fill="none" xmlns="http://www.w3.org/2000/svg">
<path fill-rule="evenodd" clip-rule="evenodd" d="M27.6234 32.718C23.9738 35.884 19.2106 37.8 13.9999 37.8C8.78922 37.8 4.02602 35.884 0.376465 32.718C1.50909 32.1945 2.704 31.8114 3.84026 31.4471C6.37378 30.6347 8.6157 29.9159 9.22545 27.9433V24.5137C8.50928 24.1336 6.46262 21.5052 6.24618 19.45C6.22429 19.2421 6.04531 19.1057 5.80948 18.9259C5.36135 18.5843 4.70793 18.0863 4.53692 16.6442C4.39687 15.463 4.95389 14.798 5.29129 14.589C5.29129 14.589 4.45098 12.6826 4.45098 10.792C4.45098 5.16783 7.24882 0.5 13.9999 0.5C17.6444 0.5 18.7744 3.07142 18.7744 3.07142C22.0306 3.07142 23.5489 6.62454 23.5489 10.792C23.5489 12.8694 22.7085 14.589 22.7085 14.589C23.0459 14.798 23.603 15.463 23.4629 16.6442C23.2019 18.8451 22.317 19.4025 21.7537 19.45C21.5372 21.5021 19.4906 24.1305 18.7744 24.5137V27.9433C19.3841 29.9159 21.6261 30.6347 24.1596 31.4471C25.2958 31.8114 26.4908 32.1945 27.6234 32.718Z" fill="white"/>
</svg>
