<svg width="18" height="20" viewBox="0 0 18 20" fill="none" xmlns="http://www.w3.org/2000/svg">
<path fill-rule="evenodd" clip-rule="evenodd" d="M7.75597 17C3.36257 16.9994 1.14927 16.9708 0.295698 15.5159C-0.260997 14.5669 -0.00454587 13.4115 0.837463 11.6616C1.28573 10.73 1.50986 10.2641 1.61336 9.97797C1.61792 9.96536 1.62229 9.95327 1.62649 9.94165C1.67729 9.80127 1.70269 9.73108 1.72405 9.65969C1.74542 9.58831 1.76275 9.51572 1.79742 9.37055C1.80028 9.35854 1.80327 9.34603 1.80639 9.33298C1.87711 9.03704 1.96803 8.35787 2.14986 6.99952C2.30969 5.80556 2.56814 4.79724 2.83076 4C3.33404 2.47211 4.10182 1.33285 5.60905 0.676451C6.45356 0.308669 7.58458 0 9.00209 0C10.4196 0 11.5506 0.308669 12.3951 0.676451C13.9023 1.33287 14.6701 2.4721 15.1734 4C15.436 4.79724 15.6945 5.80556 15.8543 6.99952C16.0371 8.36469 16.1285 9.04741 16.1997 9.34473L16.2091 9.38406C16.243 9.52574 16.2599 9.59659 16.2808 9.66627C16.3016 9.73598 16.3263 9.80453 16.3757 9.94166L16.3894 9.97964C16.493 10.2673 16.7186 10.737 17.1696 11.6763C18.0059 13.4179 18.2594 14.5696 17.7043 15.5159C16.8511 16.9703 14.6391 16.9994 10.2491 17H7.75597ZM10.2479 15H7.7572C5.49916 14.9997 4.02763 14.9869 3.00738 14.8273C2.51857 14.7509 2.26051 14.6572 2.13085 14.5894C2.04196 14.5429 2.0288 14.5186 2.02229 14.5066L2.02075 14.5038C2.01017 14.4858 2.00711 14.4767 2.00417 14.4575C2.00011 14.4309 1.99311 14.3547 2.01715 14.2038C2.07047 13.8692 2.2432 13.3527 2.63968 12.5287L2.71425 12.3738C3.09189 11.5894 3.35509 11.0426 3.49414 10.6581L3.51069 10.6125C3.55505 10.4902 3.60139 10.3624 3.64008 10.2331C3.67877 10.1039 3.71023 9.97165 3.74036 9.84507L3.75161 9.79786C3.84671 9.39992 3.94771 8.64451 4.10025 7.50359L4.13218 7.26488C4.27403 6.2052 4.50245 5.3176 4.73035 4.62573C5.12193 3.43697 5.5902 2.86609 6.40761 2.51011C7.02325 2.242 7.88345 2 9.00209 2C10.1207 2 10.9809 2.242 11.5965 2.51011C12.414 2.8661 12.8822 3.43694 13.2738 4.62575C13.5017 5.31762 13.7301 6.20522 13.872 7.26489L13.9041 7.50468C14.0574 8.65148 14.1589 9.41074 14.2547 9.81056L14.266 9.85801C14.2956 9.98216 14.3266 10.1121 14.3645 10.239C14.4024 10.3658 14.4478 10.4914 14.4912 10.6115L14.5077 10.6574C14.647 11.0439 14.9117 11.5949 15.2917 12.3858L15.3668 12.5422C15.7601 13.3613 15.9308 13.8744 15.9833 14.2063C16.0069 14.3559 15.9998 14.4315 15.9958 14.4578C15.9929 14.4768 15.9898 14.4858 15.9792 14.5038L15.9777 14.5066C15.9712 14.5186 15.958 14.5429 15.8693 14.5893C15.7398 14.6571 15.482 14.7507 14.9937 14.8272C13.9744 14.9867 12.5041 14.9997 10.2479 15Z" fill="#1D2023"/>
<path d="M8 18C7.44771 18 7 18.4477 7 19C7 19.5523 7.44771 20 8 20H10C10.5523 20 11 19.5523 11 19C11 18.4477 10.5523 18 10 18H8Z" fill="#1D2023"/>
</svg>
