<svg width="20" height="20" viewBox="0 0 20 20" fill="none" xmlns="http://www.w3.org/2000/svg">
<path fill-rule="evenodd" clip-rule="evenodd" d="M14.9792 8.99967C15.0024 9.55145 15.4477 10 15.9999 10C16.5523 10 17.0022 9.55187 16.9808 8.99998C16.9771 8.90349 16.9729 8.80787 16.9681 8.71311C17.8539 9.31999 18 9.82721 18 10C18 10.2151 17.7737 10.9482 16.1766 11.7467C14.6992 12.4854 12.5183 13 10 13C7.48174 13 5.30077 12.4854 3.82336 11.7467C2.22632 10.9482 2 10.2151 2 10C2 9.82721 2.14611 9.31999 3.03189 8.71311C3.02714 8.80787 3.02289 8.90349 3.01917 8.99998C2.99784 9.55187 3.44775 10 4.00005 10C4.55232 10 4.99763 9.55145 5.0208 8.99967C5.1366 6.24254 5.71225 4.30559 6.15137 3.19956C6.34733 2.706 6.68222 2.4326 7.02503 2.34102C7.65927 2.1716 8.63517 2.00098 10 2.00098C11.3648 2.00098 12.3407 2.1716 12.975 2.34102C13.3178 2.4326 13.6527 2.706 13.8486 3.19956C14.2878 4.30558 14.8634 6.24253 14.9792 8.99967ZM3.27734 6.2984C3.53889 4.62534 3.94199 3.34441 4.29252 2.46154C4.68848 1.46422 5.47217 0.68571 6.50887 0.408775C7.31657 0.193011 8.46626 0.000976562 10 0.000976562C11.5337 0.000976562 12.6834 0.193012 13.4911 0.408776C14.5278 0.685711 15.3115 1.46422 15.7075 2.46154C16.058 3.3444 16.4611 4.62534 16.7227 6.2984C18.736 7.21306 20 8.53272 20 10C20 12.7614 15.5228 15 10 15C4.47715 15 0 12.7614 0 10C0 8.53272 1.26404 7.21306 3.27734 6.2984ZM8.45119 5.10949C8.32087 5.51029 7.94426 5.8 7.5 5.8C6.94772 5.8 6.5 5.35228 6.5 4.8V4.78147C6.5 4.29015 6.73044 3.54392 7.5275 3.28231C7.9992 3.12749 8.75437 3 10 3C11.1705 3 11.8725 3.11097 12.3152 3.2992C12.8734 3.53654 13.1106 4.06915 13.1815 4.22838L13.19 4.24727C13.3201 4.53482 13.5 5.02699 13.5 5.6C13.5 6.02111 13.4009 6.47311 13.3165 6.79307C13.0808 7.68663 12.2653 8.2 11.449 8.2H10.98C10.8873 8.65645 10.4838 9 10 9C9.44772 9 9 8.55228 9 8V7.84669C9 7.44214 9.14892 7.05174 9.41836 6.74997C9.73078 6.40006 10.1776 6.2 10.6467 6.2H11.4039C11.4645 5.95506 11.5 5.73952 11.5 5.6C11.5 5.43516 11.4458 5.251 11.3792 5.09739C11.1821 5.05583 10.7779 5.00131 10.0273 5.00002H9.97256C9.22202 5.0013 8.74293 5.05508 8.45119 5.10949ZM10 12C10.5523 12 11 11.5523 11 11C11 10.4477 10.5523 10 10 10C9.44771 10 9 10.4477 9 11C9 11.5523 9.44771 12 10 12ZM6.52355 16.1713C5.6329 15.9965 4.88327 16.9088 5.45896 17.6105C6.68137 19.1005 8.26715 20 10 20C11.7328 20 13.3186 19.1005 14.541 17.6105C15.1167 16.9088 14.3671 15.9965 13.4765 16.1713C13.2305 16.2196 12.9896 16.357 12.8229 16.5441C11.9278 17.5488 10.9283 18 10 18C9.07172 18 8.07223 17.5488 7.1771 16.5441C7.01037 16.357 6.76949 16.2196 6.52355 16.1713Z" fill="#1D2023"/>
</svg>
