<svg width="28" height="28" viewBox="0 0 28 28" fill="none" xmlns="http://www.w3.org/2000/svg">
<path d="M19.3186 0.438843V1.93174H22.5347V7.77243L22.5354 7.86859H24.3359V1.93174H27.552V0.438843H19.3186Z" fill="white"/>
<path d="M7.73604 0.461085L5.38383 5.34489L3.03159 0.461085H0.463379V7.84571H2.26388V2.56069L4.5631 7.02562H6.2046L8.50445 2.56069V7.84571H10.3049V0.461085H7.73604Z" fill="white"/>
<path d="M25.747 25.0758C25.7134 25.3486 25.5891 25.6021 25.3942 25.7957C25.1917 25.98 24.9428 26.1056 24.6743 26.1589C24.2819 26.2367 23.8824 26.2729 23.4824 26.267C23.0565 26.2746 22.6323 26.2124 22.2265 26.083C21.8938 25.975 21.6069 25.7586 21.4116 25.4685C21.2153 25.1779 21.1184 24.7584 21.1184 24.2249V23.4684C21.1184 22.931 21.2173 22.5115 21.4116 22.2209C21.6065 21.9314 21.8926 21.7153 22.2245 21.607C22.6303 21.4776 23.0546 21.4154 23.4805 21.4231C23.8805 21.4171 24.2799 21.4533 24.6723 21.5311C24.9408 21.5846 25.1897 21.7102 25.3923 21.8943C25.5872 22.088 25.7114 22.3415 25.745 22.6142H27.5468C27.5142 22.0462 27.2976 21.5042 26.9296 21.0703C26.5667 20.6712 26.097 20.3846 25.5762 20.2444C24.893 20.0641 24.1881 19.9797 23.4818 19.9937C22.6185 19.9937 21.8698 20.1181 21.2565 20.3628C20.6498 20.5963 20.1416 21.0309 19.8166 21.5939C19.4992 22.1391 19.3323 22.8669 19.3212 23.7589V23.8408L19.4174 23.8447H19.3212V23.9265C19.3323 24.8185 19.4992 25.5464 19.8166 26.0916C20.1416 26.6546 20.6498 27.0891 21.2565 27.3226C21.8704 27.5674 22.6198 27.6917 23.4818 27.6917C24.1882 27.706 24.8931 27.6216 25.5762 27.4411C26.0972 27.3014 26.5671 27.0146 26.9296 26.6151C27.2977 26.1812 27.5144 25.6392 27.5468 25.0712L25.747 25.0758Z" fill="white"/>
</svg>
