<svg width="16" height="16" viewBox="0 0 16 16" fill="none" xmlns="http://www.w3.org/2000/svg">
<path d="M0.0160675 1.53916C0.0593541 0.957542 0.0809974 0.666735 0.372889 0.374843C0.664782 0.0829505 0.955589 0.0613072 1.5372 0.0180206C1.68797 0.00679962 1.8435 0 1.99902 0C2.15455 0 2.31007 0.00679962 2.46084 0.0180206C3.04246 0.0613072 3.33327 0.0829505 3.62516 0.374843C3.91705 0.666735 3.93869 0.957542 3.98198 1.53916C3.9932 1.68993 4 1.84545 4 2.00098C4 2.1565 3.9932 2.31203 3.98198 2.4628C3.93869 3.04441 3.91705 3.33522 3.62516 3.62711C3.33327 3.919 3.04246 3.94065 2.46084 3.98393C2.31007 3.99515 2.15455 4.00195 1.99902 4.00195C1.8435 4.00195 1.68797 3.99515 1.5372 3.98393C0.955589 3.94065 0.664782 3.919 0.372889 3.62711C0.0809974 3.33522 0.0593541 3.04441 0.0160675 2.4628C0.00484649 2.31203 -0.00195312 2.1565 -0.00195312 2.00098C-0.00195312 1.84545 0.00484649 1.68993 0.0160675 1.53916Z" fill="#1D2023"/>
<path d="M0.0160675 7.53916C0.0593541 6.95754 0.0809974 6.66673 0.372889 6.37484C0.664782 6.08295 0.955589 6.06131 1.5372 6.01802C1.68797 6.0068 1.8435 6 1.99902 6C2.15455 6 2.31007 6.0068 2.46084 6.01802C3.04246 6.06131 3.33327 6.08295 3.62516 6.37484C3.91705 6.66673 3.93869 6.95754 3.98198 7.53916C3.9932 7.68993 4 7.84545 4 8.00098C4 8.1565 3.9932 8.31203 3.98198 8.4628C3.93869 9.04441 3.91705 9.33522 3.62516 9.62711C3.33327 9.919 3.04246 9.94065 2.46084 9.98393C2.31007 9.99515 2.15455 10.002 1.99902 10.002C1.8435 10.002 1.68797 9.99515 1.5372 9.98393C0.955589 9.94065 0.664782 9.919 0.372889 9.62711C0.0809974 9.33522 0.0593541 9.04441 0.0160675 8.4628C0.00484649 8.31203 -0.00195312 8.1565 -0.00195312 8.00098C-0.00195312 7.84545 0.00484649 7.68993 0.0160675 7.53916Z" fill="#1D2023"/>
<path d="M0.372889 12.3748C0.0809974 12.6667 0.0593541 12.9575 0.0160675 13.5392C0.00484649 13.6899 -0.00195312 13.8455 -0.00195312 14.001C-0.00195312 14.1565 0.00484649 14.312 0.0160675 14.4628C0.0593541 15.0444 0.0809974 15.3352 0.372889 15.6271C0.664782 15.919 0.955589 15.9406 1.5372 15.9839C1.68797 15.9952 1.8435 16.002 1.99902 16.002C2.15455 16.002 2.31007 15.9952 2.46084 15.9839C3.04246 15.9406 3.33327 15.919 3.62516 15.6271C3.91705 15.3352 3.93869 15.0444 3.98198 14.4628C3.9932 14.312 4 14.1565 4 14.001C4 13.8455 3.9932 13.6899 3.98198 13.5392C3.93869 12.9575 3.91705 12.6667 3.62516 12.3748C3.33327 12.083 3.04246 12.0613 2.46084 12.018C2.31007 12.0068 2.15455 12 1.99902 12C1.8435 12 1.68797 12.0068 1.5372 12.018C0.955589 12.0613 0.664782 12.083 0.372889 12.3748Z" fill="#1D2023"/>
<path d="M12.018 1.53916C12.0613 0.957542 12.083 0.666735 12.3748 0.374843C12.6667 0.0829505 12.9575 0.0613072 13.5392 0.0180206C13.6899 0.00679962 13.8455 0 14.001 0C14.1565 0 14.312 0.00679962 14.4628 0.0180206C15.0444 0.0613072 15.3352 0.0829505 15.6271 0.374843C15.919 0.666735 15.9406 0.957542 15.9839 1.53916C15.9952 1.68993 16.002 1.84545 16.002 2.00098C16.002 2.1565 15.9952 2.31203 15.9839 2.4628C15.9406 3.04441 15.919 3.33522 15.6271 3.62711C15.3352 3.919 15.0444 3.94065 14.4628 3.98393C14.312 3.99515 14.1565 4.00195 14.001 4.00195C13.8455 4.00195 13.6899 3.99515 13.5392 3.98393C12.9575 3.94065 12.6667 3.919 12.3748 3.62711C12.083 3.33522 12.0613 3.04441 12.018 2.4628C12.0068 2.31203 12 2.1565 12 2.00098C12 1.84545 12.0068 1.68993 12.018 1.53916Z" fill="#1D2023"/>
<path d="M12.3748 6.37484C12.083 6.66673 12.0613 6.95754 12.018 7.53916C12.0068 7.68993 12 7.84545 12 8.00098C12 8.1565 12.0068 8.31203 12.018 8.4628C12.0613 9.04441 12.083 9.33522 12.3748 9.62711C12.6667 9.919 12.9575 9.94065 13.5392 9.98393C13.6899 9.99515 13.8455 10.002 14.001 10.002C14.1565 10.002 14.312 9.99515 14.4628 9.98393C15.0444 9.94065 15.3352 9.919 15.6271 9.62711C15.919 9.33522 15.9406 9.04441 15.9839 8.4628C15.9952 8.31203 16.002 8.1565 16.002 8.00098C16.002 7.84545 15.9952 7.68993 15.9839 7.53916C15.9406 6.95754 15.919 6.66673 15.6271 6.37484C15.3352 6.08295 15.0444 6.06131 14.4628 6.01802C14.312 6.0068 14.1565 6 14.001 6C13.8455 6 13.6899 6.0068 13.5392 6.01802C12.9575 6.06131 12.6667 6.08295 12.3748 6.37484Z" fill="#1D2023"/>
<path d="M12.018 13.5392C12.0613 12.9575 12.083 12.6667 12.3748 12.3748C12.6667 12.083 12.9575 12.0613 13.5392 12.018C13.6899 12.0068 13.8455 12 14.001 12C14.1565 12 14.312 12.0068 14.4628 12.018C15.0444 12.0613 15.3352 12.083 15.6271 12.3748C15.919 12.6667 15.9406 12.9575 15.9839 13.5392C15.9952 13.6899 16.002 13.8455 16.002 14.001C16.002 14.1565 15.9952 14.312 15.9839 14.4628C15.9406 15.0444 15.919 15.3352 15.6271 15.6271C15.3352 15.919 15.0444 15.9406 14.4628 15.9839C14.312 15.9952 14.1565 16.002 14.001 16.002C13.8455 16.002 13.6899 15.9952 13.5392 15.9839C12.9575 15.9406 12.6667 15.919 12.3748 15.6271C12.083 15.3352 12.0613 15.0444 12.018 14.4628C12.0068 14.312 12 14.1565 12 14.001C12 13.8455 12.0068 13.6899 12.018 13.5392Z" fill="#1D2023"/>
<path d="M6.37484 0.374843C6.08295 0.666735 6.06131 0.957542 6.01802 1.53916C6.0068 1.68993 6 1.84545 6 2.00098C6 2.1565 6.0068 2.31203 6.01802 2.4628C6.06131 3.04441 6.08295 3.33522 6.37484 3.62711C6.66673 3.919 6.95754 3.94065 7.53916 3.98393C7.68993 3.99515 7.84545 4.00195 8.00098 4.00195C8.1565 4.00195 8.31203 3.99515 8.4628 3.98393C9.04441 3.94065 9.33522 3.919 9.62711 3.62711C9.919 3.33522 9.94065 3.04441 9.98393 2.4628C9.99515 2.31203 10.002 2.1565 10.002 2.00098C10.002 1.84545 9.99515 1.68993 9.98393 1.53916C9.94065 0.957542 9.919 0.666735 9.62711 0.374843C9.33522 0.0829505 9.04441 0.0613072 8.4628 0.0180206C8.31203 0.00679962 8.1565 0 8.00098 0C7.84545 0 7.68993 0.00679962 7.53916 0.0180206C6.95754 0.0613072 6.66673 0.0829505 6.37484 0.374843Z" fill="#1D2023"/>
<path d="M6.01802 7.53916C6.06131 6.95754 6.08295 6.66673 6.37484 6.37484C6.66673 6.08295 6.95754 6.06131 7.53916 6.01802C7.68993 6.0068 7.84545 6 8.00098 6C8.1565 6 8.31203 6.0068 8.4628 6.01802C9.04441 6.06131 9.33522 6.08295 9.62711 6.37484C9.919 6.66673 9.94065 6.95754 9.98393 7.53916C9.99515 7.68993 10.002 7.84545 10.002 8.00098C10.002 8.1565 9.99515 8.31203 9.98393 8.4628C9.94065 9.04441 9.919 9.33522 9.62711 9.62711C9.33522 9.919 9.04441 9.94065 8.4628 9.98393C8.31203 9.99515 8.1565 10.002 8.00098 10.002C7.84545 10.002 7.68993 9.99515 7.53916 9.98393C6.95754 9.94065 6.66673 9.919 6.37484 9.62711C6.08295 9.33522 6.06131 9.04441 6.01802 8.4628C6.0068 8.31203 6 8.1565 6 8.00098C6 7.84545 6.0068 7.68993 6.01802 7.53916Z" fill="#1D2023"/>
<path d="M6.37484 12.3748C6.08295 12.6667 6.06131 12.9575 6.01802 13.5392C6.0068 13.6899 6 13.8455 6 14.001C6 14.1565 6.0068 14.312 6.01802 14.4628C6.06131 15.0444 6.08295 15.3352 6.37484 15.6271C6.66673 15.919 6.95754 15.9406 7.53916 15.9839C7.68993 15.9952 7.84545 16.002 8.00098 16.002C8.1565 16.002 8.31203 15.9952 8.4628 15.9839C9.04441 15.9406 9.33522 15.919 9.62711 15.6271C9.919 15.3352 9.94065 15.0444 9.98393 14.4628C9.99515 14.312 10.002 14.1565 10.002 14.001C10.002 13.8455 9.99515 13.6899 9.98393 13.5392C9.94065 12.9575 9.919 12.6667 9.62711 12.3748C9.33522 12.083 9.04441 12.0613 8.4628 12.018C8.31203 12.0068 8.1565 12 8.00098 12C7.84545 12 7.68993 12.0068 7.53916 12.018C6.95754 12.0613 6.66673 12.083 6.37484 12.3748Z" fill="#1D2023"/>
</svg>
