<svg width="18" height="18" viewBox="0 0 18 18" fill="none" xmlns="http://www.w3.org/2000/svg">
<path fill-rule="evenodd" clip-rule="evenodd" d="M11.9763 9.66039C11.9204 10.4448 11.8925 10.8371 11.3648 11.3648C10.837 11.8926 10.4448 11.9205 9.66033 11.9763C9.45081 11.9912 9.22979 12 8.99997 12C8.77014 12 8.54912 11.9912 8.33961 11.9763C7.55516 11.9205 7.16294 11.8926 6.63517 11.3648C6.1074 10.8371 6.0795 10.4448 6.02368 9.66039C6.00877 9.45087 5.99997 9.22985 5.99997 9.00003C5.99997 8.7702 6.00877 8.54918 6.02368 8.33967C6.0795 7.55522 6.10741 7.163 6.63517 6.63523C7.16294 6.10747 7.55516 6.07956 8.33961 6.02374C8.54912 6.00883 8.77014 6.00003 8.99997 6.00003C9.22979 6.00003 9.45081 6.00883 9.66033 6.02374C10.4448 6.07956 10.837 6.10747 11.3648 6.63523C11.8925 7.163 11.9204 7.55522 11.9763 8.33967C11.9912 8.54918 12 8.7702 12 9.00003C12 9.22985 11.9912 9.45087 11.9763 9.66039ZM9.51837 9.98136C9.35242 9.99317 9.17888 10 8.99997 10C8.82105 10 8.64751 9.99317 8.48156 9.98136C8.27224 9.96646 8.15294 9.9575 8.05577 9.94579L8.05437 9.94562L8.0542 9.94422C8.04249 9.84706 8.03353 9.72775 8.01863 9.51843C8.00682 9.35248 7.99997 9.17894 7.99997 9.00003C7.99997 8.82112 8.00682 8.64757 8.01863 8.48162C8.03353 8.2723 8.04249 8.153 8.0542 8.05583L8.05437 8.05443L8.05577 8.05426C8.15294 8.04255 8.27224 8.03359 8.48156 8.01869C8.64751 8.00689 8.82105 8.00003 8.99997 8.00003C9.17888 8.00003 9.35242 8.00689 9.51837 8.01869C9.72769 8.03359 9.847 8.04255 9.94416 8.05426L9.94556 8.05443L9.94573 8.05583C9.95744 8.153 9.9664 8.2723 9.9813 8.48162C9.99311 8.64757 9.99997 8.82112 9.99997 9.00003C9.99997 9.17894 9.99311 9.35248 9.9813 9.51843C9.9664 9.72775 9.95744 9.84706 9.94573 9.94422L9.94556 9.94562L9.94416 9.94579C9.847 9.9575 9.72769 9.96646 9.51837 9.98136Z" fill="#1D2023"/>
<path fill-rule="evenodd" clip-rule="evenodd" d="M9.69882 18L8.30095 18C7.9581 18.0001 7.61245 18.0002 7.31981 17.9623C6.98068 17.9183 6.60754 17.813 6.27055 17.5288C5.9386 17.2488 5.77079 16.9071 5.66924 16.5812C5.58702 16.3173 5.53161 16.0033 5.47867 15.6937C5.30285 15.601 5.13117 15.5017 4.96395 15.396C4.66967 15.5048 4.37041 15.6136 4.10112 15.6742C3.7681 15.7492 3.38832 15.7747 2.97988 15.6272C2.56523 15.4775 2.28749 15.207 2.07988 14.9353C1.90073 14.7009 1.72799 14.4015 1.55665 14.1046L0.857241 12.8932C0.685769 12.5963 0.512894 12.2971 0.399428 12.0247C0.267924 11.7091 0.172549 11.3333 0.250216 10.8993C0.326718 10.4719 0.538682 10.1557 0.770125 9.90481C0.957605 9.70156 1.20199 9.49645 1.44377 9.29568C1.43999 9.19764 1.43809 9.09917 1.43809 9.0003C1.43809 8.90133 1.44 8.80276 1.44378 8.70462C1.20149 8.50345 0.956479 8.29792 0.768601 8.09425C0.537145 7.84335 0.325162 7.52719 0.248651 7.09972C0.170978 6.66575 0.266357 6.28996 0.397863 5.9743C0.511336 5.70193 0.684219 5.40265 0.855706 5.10579L1.55524 3.89417C1.72658 3.59722 1.89933 3.29785 2.07848 3.06338C2.2861 2.79166 2.56385 2.52117 2.97852 2.37145C3.38697 2.22398 3.76676 2.24948 4.09978 2.32447C4.3699 2.3853 4.67017 2.49461 4.96532 2.60377C5.13207 2.4984 5.30326 2.39935 5.47857 2.30695C5.53154 1.99713 5.58697 1.68289 5.66924 1.41886C5.77079 1.09295 5.9386 0.751274 6.27055 0.471266C6.60754 0.187 6.98068 0.0817033 7.31982 0.0377599C7.61245 -0.00015812 7.95811 -7.60736e-05 8.30096 7.8797e-06L9.69881 8.00191e-06C10.0417 -7.58915e-05 10.3873 -0.000157874 10.68 0.0377602C11.0191 0.0817037 11.3922 0.187001 11.7292 0.471264C12.0612 0.751273 12.229 1.09295 12.3305 1.41886C12.4128 1.68289 12.4682 1.99714 12.5212 2.30698C12.6966 2.3994 12.8678 2.49849 13.0346 2.6039C13.3291 2.49503 13.6285 2.38612 13.898 2.32545C14.231 2.25047 14.6107 2.22498 15.0192 2.37245C15.4338 2.52217 15.7116 2.79266 15.9192 3.06437C16.0983 3.29882 16.2711 3.59817 16.4424 3.8951L17.1418 5.10649C17.3133 5.40334 17.4862 5.70262 17.5996 5.97499C17.7311 6.29065 17.8265 6.66642 17.7489 7.10038C17.6724 7.52783 17.4604 7.84399 17.2289 8.0949C17.0416 8.29797 16.7975 8.50291 16.5559 8.70352C16.5597 8.80202 16.5616 8.90096 16.5616 9.0003C16.5616 9.09906 16.5597 9.19742 16.556 9.29535C16.7985 9.49668 17.0437 9.70239 17.2318 9.90623C17.4632 10.1571 17.6752 10.4733 17.7517 10.9008C17.8294 11.3347 17.734 11.7105 17.6025 12.0262C17.489 12.2985 17.3161 12.5978 17.1447 12.8947L16.4451 14.1063C16.2738 14.4033 16.101 14.7026 15.9219 14.9371C15.7143 15.2088 15.4365 15.4793 15.0218 15.629C14.6134 15.7765 14.2336 15.751 13.9006 15.676C13.6304 15.6152 13.33 15.5058 13.0348 15.3966C12.8679 15.5021 12.6966 15.6012 12.5211 15.6937C12.4682 16.0033 12.4127 16.3173 12.3305 16.5812C12.229 16.9071 12.0612 17.2488 11.7292 17.5288C11.3922 17.813 11.0191 17.9183 10.6799 17.9623C10.3873 18.0002 10.0417 18.0001 9.69882 18ZM10.5659 15.262C10.5 15.6474 10.4642 15.8447 10.4234 15.9788C10.2751 15.998 10.0619 16 9.65079 16H8.34898C7.93789 16 7.72471 15.998 7.57641 15.9788C7.53555 15.8447 7.4998 15.6474 7.43391 15.262L7.41019 15.122C7.32538 14.6163 6.99532 14.2119 6.56941 14.0046C6.33091 13.8885 6.10182 13.7558 5.88365 13.6079C5.49085 13.3416 4.97484 13.2576 4.49393 13.4372L4.36124 13.4865C3.99456 13.6221 3.80558 13.6894 3.66907 13.7211C3.57828 13.6022 3.47022 13.419 3.26469 13.063L2.61334 11.9348C2.40781 11.5788 2.30297 11.3932 2.24546 11.2552C2.34112 11.1528 2.49409 11.0232 2.79486 10.7734L2.90469 10.6825C3.29972 10.3566 3.48514 9.86915 3.45196 9.39671C3.44277 9.26592 3.43809 9.13374 3.43809 9.0003C3.43809 8.86678 3.44278 8.73452 3.45197 8.60365C3.48518 8.13116 3.29974 7.64363 2.90464 7.31772L2.79335 7.22562C2.49255 6.97585 2.33972 6.84586 2.24405 6.74344C2.30156 6.60541 2.40626 6.42017 2.61179 6.06418L3.26328 4.93576C3.46882 4.57976 3.57713 4.39615 3.66792 4.27733C3.80444 4.30897 3.99349 4.37677 4.36019 4.51238L4.4951 4.56252C4.97592 4.74211 5.49186 4.65818 5.88466 4.39203C6.1025 4.24444 6.33122 4.11196 6.56933 3.99606C6.99523 3.78875 7.32529 3.38436 7.41009 2.87867L7.43391 2.738C7.4998 2.3526 7.53596 2.15524 7.57682 2.02118C7.72512 2.00196 7.93789 2.00002 8.34898 2.00002H9.65079C10.0619 2.00002 10.2751 2.00202 10.4234 2.02123C10.4642 2.15529 10.5 2.3526 10.5659 2.738L10.5897 2.87869C10.6745 3.38438 11.0045 3.78876 11.4304 3.99608C11.6686 4.112 11.8973 4.24451 12.1152 4.39214C12.508 4.65828 13.0239 4.74224 13.5047 4.56269L13.6378 4.51323C14.0045 4.37764 14.1935 4.31028 14.33 4.27865C14.4208 4.39746 14.5288 4.58074 14.7344 4.93672L15.3857 6.0649C15.5913 6.42089 15.6961 6.60649 15.7536 6.74451C15.658 6.84692 15.505 6.97653 15.2042 7.22628L15.0949 7.31674C14.6998 7.64271 14.5144 8.1303 14.5477 8.60282C14.5569 8.73396 14.5616 8.8665 14.5616 9.0003C14.5616 9.13366 14.557 9.26577 14.5478 9.39648C14.5146 9.86893 14.7001 10.3564 15.0952 10.6823L15.207 10.7749C15.5078 11.0246 15.6606 11.1546 15.7563 11.257C15.6988 11.3951 15.5941 11.5803 15.3886 11.9363L14.7371 13.0647C14.5315 13.4207 14.4232 13.6043 14.3324 13.7231C14.1959 13.6915 14.0072 13.6238 13.6405 13.4882L13.505 13.4379C13.0241 13.2582 12.5082 13.3422 12.1153 13.6084C11.8974 13.7561 11.6686 13.8886 11.4303 14.0046C11.0044 14.2119 10.6744 14.6163 10.5896 15.122L10.5659 15.262Z" fill="#1D2023"/>
</svg>
