<svg width="20" height="19" viewBox="0 0 20 19" fill="none" xmlns="http://www.w3.org/2000/svg">
<path fill-rule="evenodd" clip-rule="evenodd" d="M10 13.4902L11.4145 14.5173C12.8778 15.5799 13.8461 16.2798 14.5658 16.6968C14.6139 16.7247 14.659 16.7501 14.701 16.7732C14.694 16.7257 14.6858 16.6747 14.6763 16.6199C14.5349 15.8006 14.2142 14.65 13.725 12.9096L13.3697 11.6452L14.4883 10.736C16.0043 9.50384 16.9901 8.69782 17.5978 8.067C17.6257 8.03801 17.6519 8.0103 17.6765 7.98384C17.641 7.97711 17.6035 7.97032 17.5638 7.96353C16.7002 7.81566 15.4282 7.7508 13.4765 7.65692L12.1788 7.5945L11.7075 6.38447C10.9683 4.48645 10.4836 3.25323 10.0494 2.45769C10.0324 2.4265 10.0159 2.39687 10 2.36875C9.98407 2.39687 9.96759 2.4265 9.95057 2.45769C9.51644 3.25323 9.03174 4.48645 8.2925 6.38447L7.82121 7.5945L6.52353 7.65692C4.57182 7.7508 3.29979 7.81566 2.43623 7.96353C2.39654 7.97033 2.35899 7.97711 2.32349 7.98384C2.34808 8.0103 2.37429 8.03801 2.40222 8.067C3.0099 8.69782 3.99573 9.50384 5.51168 10.736L6.63031 11.6452L6.27495 12.9096C5.78579 14.65 5.46515 15.8006 5.32369 16.6199C5.31423 16.6747 5.30605 16.7257 5.29897 16.7732C5.34102 16.7501 5.38605 16.7247 5.43417 16.6968C6.1539 16.2798 7.12221 15.5799 8.58554 14.5173L10 13.4902ZM10 15.9629L9.76201 16.1357C6.9129 18.2046 5.48833 19.239 4.53801 18.9532C4.13101 18.8308 3.77356 18.5821 3.51744 18.2431C2.91941 17.4516 3.39561 15.7572 4.34801 12.3686L4.24884 12.288C1.30567 9.89578 -0.165921 8.69967 0.0148645 7.56131C0.0483885 7.35022 0.115544 7.14586 0.213777 6.95601C0.743517 5.9322 2.63811 5.84107 6.42731 5.6588C7.8618 1.97573 8.57905 0.134186 9.79737 0.0102776C9.93211 -0.00342586 10.0679 -0.00342586 10.2026 0.0102776C11.421 0.134186 12.1382 1.97573 13.5727 5.6588C17.3619 5.84107 19.2565 5.9322 19.7862 6.95601C19.8845 7.14586 19.9516 7.35022 19.9851 7.56131C20.1659 8.69967 18.6943 9.89578 15.7512 12.288L15.652 12.3686C16.6044 15.7572 17.0806 17.4516 16.4826 18.2431C16.2264 18.5821 15.869 18.8308 15.462 18.9532C14.5117 19.239 13.0871 18.2046 10.238 16.1357L10 15.9629Z" fill="#1D2023"/>
</svg>
